<svg xmlns="http://www.w3.org/2000/svg" width="359" height="351" viewBox="0 0 359 351">
<g>
<path d="M 98.75 343.44 C92.84,340.44 88.00,337.71 88.00,337.39 C88.00,336.83 97.81,320.04 154.85,223.00 C166.97,202.38 177.40,185.50 178.03,185.50 C178.66,185.50 183.80,193.15 189.44,202.50 C195.09,211.85 209.51,235.70 221.50,255.50 C262.43,323.12 270.00,335.79 269.99,336.65 C269.97,337.53 247.79,349.00 246.09,349.00 C245.57,349.00 237.83,336.74 228.89,321.75 C219.96,306.76 206.62,284.38 199.25,272.00 C191.88,259.62 184.94,248.71 183.82,247.75 C180.85,245.20 175.69,245.51 172.91,248.38 C171.65,249.70 165.60,259.26 159.47,269.63 C153.34,280.01 143.91,295.92 138.52,305.00 C133.13,314.08 125.08,327.69 120.62,335.25 C115.78,343.45 111.90,348.98 111.00,348.95 C110.18,348.92 104.66,346.44 98.75,343.44 ZM 57.58 313.62 L 47.65 304.32 L 50.14 299.91 C51.51,297.48 59.75,283.12 68.46,268.00 C77.18,252.88 90.12,230.39 97.22,218.04 C104.32,205.68 110.37,194.38 110.67,192.91 C111.31,189.71 109.76,186.51 106.73,184.77 C105.04,183.81 92.04,183.38 52.68,183.00 L 0.87 182.50 L 0.87 169.50 L 0.87 156.50 L 82.43 156.24 C127.29,156.10 164.00,156.26 164.00,156.59 C164.00,157.57 145.50,190.15 119.48,235.00 C115.49,241.88 111.34,249.07 110.25,251.00 C109.16,252.93 101.16,266.88 92.47,282.00 C83.77,297.12 75.00,312.40 72.98,315.95 C70.95,319.50 68.89,322.52 68.40,322.66 C67.90,322.80 63.03,318.73 57.58,313.62 ZM 286.69 318.81 C273.88,296.44 252.56,259.32 222.59,207.17 C213.95,192.15 205.95,178.20 204.82,176.17 C203.69,174.15 200.79,169.08 198.38,164.90 C195.97,160.72 194.00,157.01 194.00,156.65 C194.00,156.28 230.79,156.10 275.75,156.24 L 357.50 156.50 L 357.50 169.50 L 357.50 182.50 L 305.50 183.00 C250.72,183.53 250.38,183.56 247.92,188.15 C246.17,191.42 247.32,194.61 255.07,208.02 C259.04,214.88 263.17,222.07 264.25,224.00 C265.33,225.93 268.58,231.55 271.47,236.50 C274.37,241.45 282.04,254.73 288.53,266.00 C295.02,277.27 302.50,290.28 305.16,294.89 C307.82,299.51 310.00,303.62 310.00,304.04 C310.00,304.83 291.38,322.28 289.97,322.81 C289.52,322.98 288.04,321.18 286.69,318.81 ZM 27.68 142.11 C19.23,139.90 15.11,136.23 14.29,130.16 L 13.74 126.00 L 24.85 126.00 C35.76,126.00 35.97,126.04 36.57,128.41 C37.40,131.71 41.48,133.18 49.82,133.18 C57.22,133.18 61.00,131.90 61.00,129.41 C61.00,127.28 56.02,125.47 45.00,123.60 C30.60,121.16 21.27,118.11 17.90,114.75 C15.46,112.31 15.00,111.04 15.00,106.79 C15.00,102.34 15.41,101.35 18.39,98.54 C24.17,93.08 31.12,91.52 49.50,91.52 C62.37,91.52 66.61,91.88 71.17,93.37 C77.66,95.49 81.68,99.15 82.61,103.79 L 83.25 107.00 L 72.67 107.00 C62.72,107.00 61.94,106.85 59.59,104.50 C57.35,102.26 56.28,102.00 49.25,102.00 C41.98,102.00 39.00,102.92 39.00,105.17 C39.00,106.88 45.09,108.87 56.50,110.89 C71.13,113.48 74.58,114.42 78.70,116.94 C85.12,120.88 87.41,128.67 83.78,134.21 C81.67,137.43 74.57,140.91 66.62,142.62 C57.54,144.56 36.03,144.28 27.68,142.11 ZM 95.00 117.50 L 95.00 92.00 L 125.50 92.00 L 156.00 92.00 L 156.00 96.88 C156.00,99.85 155.45,102.21 154.60,102.92 C153.64,103.71 147.94,104.06 136.85,104.00 C127.86,103.95 119.91,103.93 119.19,103.96 C118.31,103.99 117.98,105.09 118.19,107.25 L 118.50 110.50 L 135.80 110.77 L 153.10 111.05 L 152.80 116.77 L 152.50 122.50 L 135.19 122.77 L 117.89 123.05 L 118.19 127.27 L 118.50 131.50 L 137.75 131.77 L 157.00 132.04 L 157.00 137.52 L 157.00 143.00 L 126.00 143.00 L 95.00 143.00 L 95.00 117.50 ZM 167.00 117.53 L 167.00 92.00 L 181.47 92.00 L 195.94 92.00 L 210.11 107.75 C217.90,116.41 224.66,123.65 225.14,123.83 C225.61,124.02 226.00,116.91 226.00,108.05 L 226.00 91.93 L 237.25 92.22 L 248.50 92.50 L 248.78 115.50 C248.94,128.15 248.82,139.51 248.51,140.75 C247.97,142.96 247.68,143.00 233.04,143.00 L 218.12 143.00 L 207.81 131.37 C202.14,124.97 196.00,117.88 194.18,115.62 C192.35,113.35 190.45,111.35 189.95,111.18 C189.45,110.99 188.93,117.85 188.78,126.68 L 188.50 142.50 L 177.75 142.78 L 167.00 143.07 L 167.00 117.53 ZM 250.00 142.55 C250.00,142.30 257.77,130.94 267.27,117.30 L 284.53 92.50 L 297.65 92.22 L 310.76 91.94 L 326.25 115.29 C334.77,128.14 342.26,139.62 342.90,140.82 L 344.07 143.00 L 331.28 143.00 L 318.49 143.00 L 315.77 138.50 L 313.05 134.00 L 295.77 134.00 L 278.49 134.00 L 275.77 138.50 L 273.05 143.00 L 261.52 143.00 C255.19,143.00 250.00,142.80 250.00,142.55 ZM 305.48 122.04 C306.21,120.86 297.89,106.06 296.50,106.07 C295.25,106.07 286.03,121.23 286.66,122.25 C287.34,123.36 304.78,123.16 305.48,122.04 ZM 165.54 75.55 C157.53,72.19 152.15,68.14 148.32,62.59 C143.48,55.59 141.00,47.97 141.01,40.21 C141.04,24.33 148.93,11.68 162.88,5.14 C167.83,2.81 169.74,2.50 179.00,2.50 C188.25,2.50 190.16,2.81 195.00,5.11 C203.16,8.98 209.40,15.04 213.21,22.79 C216.30,29.06 216.50,30.12 216.50,39.98 C216.49,49.67 216.26,50.97 213.51,56.40 C209.43,64.47 203.27,70.51 195.22,74.31 C189.59,76.98 187.12,77.54 180.00,77.77 C172.79,78.01 170.59,77.67 165.54,75.55 Z" fill="rgba(0,175,0,1)"/>
</g>
</svg>